<?xml version="1.0" encoding="utf-8"?>
<!-- Generator: Adobe Illustrator 15.1.0, SVG Export Plug-In . SVG Version: 6.00 Build 0)  -->
<!DOCTYPE svg PUBLIC "-//W3C//DTD SVG 1.1//EN" "http://www.w3.org/Graphics/SVG/1.1/DTD/svg11.dtd">
<svg version="1.1" id="Layer_1" xmlns="http://www.w3.org/2000/svg" xmlns:xlink="http://www.w3.org/1999/xlink" x="0px" y="0px"
	 width="319px" height="319px" viewBox="0 0 319 319" enable-background="new 0 0 319 319" xml:space="preserve">
<path opacity="0.5" fill="#414141" d="M233.781,177.91c-124.731-12.104-0.414-62.39-0.414-62.39
	c74.211-40.909-132.999-25.491-197.792,29.593c34.972-13.076,48.705-17.855,68.099-20.22c17.34-2.784,24.061,56.069,17.979,74.117
	c-6.535,2.871-77.727-27.359-77.727-27.359C199.825,282.696,329.701,189.641,233.781,177.91z M141.385,199.756
	c-4.452-71.524-18.647-78.483-18.647-78.483c21.386-8.351,91.838-14.191,91.838-14.191c-59.656,26.81-51.968,46.991-51.676,48.56
	c12.611,32.381,75.89,38.271,75.89,38.271C221.256,209.499,141.385,199.756,141.385,199.756z"/>
<path opacity="0.5" fill="#E1E1E1" d="M158.959,0C71.171,0,0,71.167,0,158.959c0,87.788,71.171,158.959,158.959,158.959
	s158.959-71.171,158.959-158.959C317.918,71.167,246.747,0,158.959,0z M158.955,301.616c-78.779,0-142.653-63.873-142.653-142.661
	c0-78.784,63.874-142.653,142.653-142.653c78.787,0,142.66,63.87,142.66,142.653C301.615,237.743,237.742,301.616,158.955,301.616z"
	/>
</svg>
