<?xml version="1.0" encoding="UTF-8" standalone="no"?>
<!-- Generator: Adobe Illustrator 21.0.1, SVG Export Plug-In . SVG Version: 6.00 Build 0)  -->

<svg
   xmlns:dc="http://purl.org/dc/elements/1.1/"
   xmlns:cc="http://creativecommons.org/ns#"
   xmlns:rdf="http://www.w3.org/1999/02/22-rdf-syntax-ns#"
   xmlns:svg="http://www.w3.org/2000/svg"
   xmlns="http://www.w3.org/2000/svg"
   xmlns:sodipodi="http://sodipodi.sourceforge.net/DTD/sodipodi-0.dtd"
   xmlns:inkscape="http://www.inkscape.org/namespaces/inkscape"
   version="1.1"
   id="svg_text"
   viewBox="0 0 1103.6 163"
   x="0px"
   y="0px"
   xml:space="preserve"
   sodipodi:docname="Untitled-1.svg"
   width="1103.6"
   height="163"
   inkscape:version="0.92.2 5c3e80d, 2017-08-06"><metadata
     id="metadata25"><rdf:RDF><cc:Work
         rdf:about=""><dc:format>image/svg+xml</dc:format><dc:type
           rdf:resource="http://purl.org/dc/dcmitype/StillImage" /></cc:Work></rdf:RDF></metadata><defs
     id="defs23" /><sodipodi:namedview
     pagecolor="#ffffff"
     bordercolor="#666666"
     borderopacity="1"
     objecttolerance="10"
     gridtolerance="10"
     guidetolerance="10"
     inkscape:pageopacity="0"
     inkscape:pageshadow="2"
     inkscape:window-width="1175"
     inkscape:window-height="625"
     id="namedview21"
     showgrid="false"
     inkscape:zoom="0.23142857"
     inkscape:cx="557.5"
     inkscape:cy="65.4"
     inkscape:window-x="0"
     inkscape:window-y="0"
     inkscape:window-maximized="0"
     inkscape:current-layer="svg_text" /><style
     type="text/css"
     id="style2">
	.st0{fill:none;stroke:#FFFFFF;stroke-width:5;stroke-miterlimit:10;}
</style><g
     id="g18"
     transform="translate(-142.5,-352.4)"><path
       class="st0"
       d="m 180.7,509.9 h -34.4 v -49.1 h 34.4 c 4.1,13.4 11.8,20 23.2,20 8.2,0 12.3,-3.3 12.3,-9.9 0,-3.4 -1.4,-6.3 -4.3,-8.6 -3.1,-2.5 -9.6,-5.9 -19.5,-10.3 -12.5,-5.6 -21.6,-10.5 -27.5,-14.6 -5.5,-3.7 -10.2,-8.9 -14.1,-15.5 -3.9,-6.5 -5.8,-13.8 -5.8,-21.7 0,-14.2 4.6,-25.3 13.9,-33.3 9.2,-8 20.5,-12 33.9,-12 13.4,0 24.8,3.8 34.1,11.4 v -9.5 h 34.7 v 43.6 h -34.2 c -4.2,-12 -11.6,-18 -22.2,-18 -7.5,0 -11.2,3.2 -11.2,9.6 0,3.1 1.1,5.4 3.2,6.9 2.1,1.6 8.7,5.2 19.9,10.7 15,7.5 25.1,13 30.2,16.4 2.6,1.7 5.2,4.1 7.9,7.1 2.7,3 4.9,6.2 6.7,9.4 4,7.2 6.1,15 6.1,23.3 0,12.8 -4.8,23.7 -14.3,32.6 -9.5,9 -21.6,13.5 -36.1,13.5 -13.5,0 -25.7,-4 -36.6,-12 v 10 z"
       id="path4"
       inkscape:connector-curvature="0"
       style="fill:none;stroke:#ffffff;stroke-width:5;stroke-miterlimit:10" /><path
       class="st0"
       d="m 351.4,509.9 h -69 V 476.3 H 296 v -86 h -13.9 v -33.6 h 69.2 v 106.6 l 34.8,-34 H 366.6 V 403 h 68.2 v 28.9 h -12.4 l -20,19.6 24.1,24.7 h 8.7 v 33.6 h -39.7 l -44.1,-46.4 z"
       id="path6"
       inkscape:connector-curvature="0"
       style="fill:none;stroke:#ffffff;stroke-width:5;stroke-miterlimit:10" /><path
       class="st0"
       d="m 496,433 -43.4,-4.4 c 4.8,-10.5 12.5,-17.9 23.1,-22.1 10.5,-4.3 26,-6.4 46.4,-6.4 7.6,0 14.3,0.2 20.3,0.7 6,0.5 11.3,1.2 16,2.1 9.8,1.8 17,4.7 21.7,8.5 4.7,3.9 8,8.1 9.8,12.5 1.9,4.6 2.9,11.8 2.9,21.6 v 30.8 h 13.6 v 33.6 h -69 v -7.3 c -9.5,6.2 -22.3,9.2 -38.3,9.2 -15,0 -26.4,-3.3 -34,-9.9 -7.7,-6.6 -11.6,-14.4 -11.6,-23.4 0,-10 4.7,-18.2 14.2,-24.5 9.4,-6.4 21.6,-9.6 36.8,-9.6 13.8,0 24.8,1.8 32.9,5.4 v -3.2 c 0,-6.6 -0.5,-11.2 -1.4,-13.9 -1,-2.8 -3.3,-5.2 -6.8,-7.2 -3.7,-1.9 -7.9,-2.9 -12.8,-2.9 -8.8,0.1 -15.6,3.5 -20.4,10.4 z m 41.5,49.6 v -19.5 c -4.9,-2.6 -10.1,-4 -15.6,-4 -4.8,0 -8.7,1.3 -11.6,4 -2.9,2.7 -4.3,6.2 -4.3,10.3 0,4.3 1.5,7.9 4.4,10.6 3,2.8 6.5,4.2 10.3,4.2 6.9,0 12.5,-1.9 16.8,-5.6 z"
       id="path8"
       inkscape:connector-curvature="0"
       style="fill:none;stroke:#ffffff;stroke-width:5;stroke-miterlimit:10" /><path
       class="st0"
       d="M 706.1,509.9 H 620 v -33.6 h 14.5 V 436.7 H 620 v -33.6 h 66.3 v 26.7 c 2.5,-6.7 6.3,-12.4 11.6,-17.3 5,-4.8 10.1,-7.9 15.2,-9.4 4.9,-1.4 12.1,-2.1 21.7,-2.1 v 47 c -1.2,-0.1 -2.8,-0.1 -4.6,-0.1 -11.3,0 -19.7,1.1 -25.2,3.4 -5.7,2.3 -9.6,5.4 -11.7,9.2 -2.1,4 -3.2,9.2 -3.3,15.6 h 16.2 v 33.8 z"
       id="path10"
       inkscape:connector-curvature="0"
       style="fill:none;stroke:#ffffff;stroke-width:5;stroke-miterlimit:10" /><path
       class="st0"
       d="M 824.3,509.9 H 740 v -33.6 h 14 v -86 h -14 v -33.6 h 69.3 V 416 c 14.7,-9.9 29.2,-14.9 43.5,-14.9 12.5,0 22.5,3.6 29.8,10.9 7.3,7.3 11,20.3 11,38.8 v 25.4 h 12.5 v 33.6 h -67.9 v -43.7 c 0,-13.3 -0.8,-21.6 -2.3,-25 -1.6,-3.4 -5,-5.1 -10.1,-5.1 -5.4,0 -10.9,1.9 -16.5,5.6 v 34.6 h 15 z"
       id="path12"
       inkscape:connector-curvature="0"
       style="fill:none;stroke:#ffffff;stroke-width:5;stroke-miterlimit:10" /><path
       class="st0"
       d="m 1012.7,476.1 45.7,5.6 c -2.1,4.8 -4.9,9 -8.6,12.8 -3.7,3.8 -8.1,7.1 -13.4,9.8 -10.6,5.7 -23.4,8.6 -38.2,8.6 -24.9,0 -43.6,-5.2 -56.1,-15.5 -12.5,-10.3 -18.8,-23.7 -18.8,-40.4 0,-16.3 6.2,-29.9 18.6,-40.7 12.3,-10.9 28.9,-16.3 49.9,-16.3 20.2,0 36.6,5.1 49.3,15.4 12.5,10.2 19.1,25.7 19.9,46.6 h -84.1 c 0.2,17.3 6.7,26 19.4,26 7.5,0 13,-4 16.4,-11.9 z m -35.2,-27.9 h 31.1 c 0.1,-2.2 0.2,-3.4 0.2,-3.7 0,-5.8 -1.5,-10.6 -4.4,-14.4 -2.9,-3.7 -6.8,-5.6 -11.7,-5.6 -5,0 -8.8,2.1 -11.4,6.2 -2.6,4.2 -4,9.3 -4,15.4 0.1,0.7 0.1,1.4 0.2,2.1 z"
       id="path14"
       inkscape:connector-curvature="0"
       style="fill:none;stroke:#ffffff;stroke-width:5;stroke-miterlimit:10" /><path
       class="st0"
       d="m 1243.6,476.3 v 33.6 h -69.2 v -7.2 c -10.3,6.1 -22.2,9.1 -35.7,9.1 -15,0 -28.4,-4.6 -39.9,-13.8 -11.6,-9.2 -17.4,-22.3 -17.4,-39.4 0,-18.4 5.4,-32.6 16.1,-42.7 10.7,-9.9 25.1,-14.9 43,-14.9 13.2,0 24.5,2.9 33.9,8.8 v -19.6 h -13.6 v -33.6 h 69 v 119.5 h 13.8 z m -68.9,-20.2 c 0,-6.7 -1.5,-12.3 -4.6,-16.7 -3.1,-4.4 -7.7,-6.6 -13.8,-6.6 -12.5,0 -18.8,8.1 -18.8,24.3 0,6.7 1.5,12.2 4.6,16.5 3,4.4 7.6,6.6 13.8,6.6 5.6,0 10.1,-1.9 13.6,-5.8 3.5,-3.9 5.2,-10 5.2,-18.3 z"
       id="path16"
       inkscape:connector-curvature="0"
       style="fill:none;stroke:#ffffff;stroke-width:5;stroke-miterlimit:10" /></g></svg>