<?xml version="1.0" encoding="utf-8"?>
<!-- Generator: Adobe Illustrator 21.0.1, SVG Export Plug-In . SVG Version: 6.00 Build 0)  -->
<svg version="1.1" id="Layer_1" xmlns="http://www.w3.org/2000/svg" xmlns:xlink="http://www.w3.org/1999/xlink" x="0px" y="0px" xml:space="preserve">
<style type="text/css">
	.st0{fill:none;stroke:#FFFFFF;stroke-width:5;stroke-miterlimit:10;}
</style>
<g>
	<path class="st0" d="M180.7,509.9h-34.4v-49.1h34.4c4.1,13.4,11.8,20,23.2,20c8.2,0,12.3-3.3,12.3-9.9c0-3.4-1.4-6.3-4.3-8.6
		c-3.1-2.5-9.6-5.9-19.5-10.3c-12.5-5.6-21.6-10.5-27.5-14.6c-5.5-3.7-10.2-8.9-14.1-15.5c-3.9-6.5-5.8-13.8-5.8-21.7
		c0-14.2,4.6-25.3,13.9-33.3c9.2-8,20.5-12,33.9-12s24.8,3.8,34.1,11.4v-9.5h34.7v43.6h-34.2c-4.2-12-11.6-18-22.2-18
		c-7.5,0-11.2,3.2-11.2,9.6c0,3.1,1.1,5.4,3.2,6.9c2.1,1.6,8.7,5.2,19.9,10.7c15,7.5,25.1,13,30.2,16.4c2.6,1.7,5.2,4.1,7.9,7.1
		c2.7,3,4.9,6.2,6.7,9.4c4,7.2,6.1,15,6.1,23.3c0,12.8-4.8,23.7-14.3,32.6c-9.5,9-21.6,13.5-36.1,13.5c-13.5,0-25.7-4-36.6-12V509.9
		z"/>
	<path class="st0" d="M351.4,509.9h-69v-33.6H296v-86h-13.9v-33.6h69.2v106.6l34.8-34h-19.5v-26.3h68.2v28.9h-12.4l-20,19.6
		l24.1,24.7h8.7v33.6h-39.7l-44.1-46.4V509.9z"/>
	<path class="st0" d="M496,433l-43.4-4.4c4.8-10.5,12.5-17.9,23.1-22.1c10.5-4.3,26-6.4,46.4-6.4c7.6,0,14.3,0.2,20.3,0.7
		c6,0.5,11.3,1.2,16,2.1c9.8,1.8,17,4.7,21.7,8.5c4.7,3.9,8,8.1,9.8,12.5c1.9,4.6,2.9,11.8,2.9,21.6v30.8h13.6v33.6h-69v-7.3
		c-9.5,6.2-22.3,9.2-38.3,9.2c-15,0-26.4-3.3-34-9.9c-7.7-6.6-11.6-14.4-11.6-23.4c0-10,4.7-18.2,14.2-24.5
		c9.4-6.4,21.6-9.6,36.8-9.6c13.8,0,24.8,1.8,32.9,5.4v-3.2c0-6.6-0.5-11.2-1.4-13.9c-1-2.8-3.3-5.2-6.8-7.2
		c-3.7-1.9-7.9-2.9-12.8-2.9C507.6,422.7,500.8,426.1,496,433z M537.5,482.6v-19.5c-4.9-2.6-10.1-4-15.6-4c-4.8,0-8.7,1.3-11.6,4
		c-2.9,2.7-4.3,6.2-4.3,10.3c0,4.3,1.5,7.9,4.4,10.6c3,2.8,6.5,4.2,10.3,4.2C527.6,488.2,533.2,486.3,537.5,482.6z"/>
	<path class="st0" d="M706.1,509.9H620v-33.6h14.5v-39.6H620v-33.6h66.3v26.7c2.5-6.7,6.3-12.4,11.6-17.3c5-4.8,10.1-7.9,15.2-9.4
		c4.9-1.4,12.1-2.1,21.7-2.1v47c-1.2-0.1-2.8-0.1-4.6-0.1c-11.3,0-19.7,1.1-25.2,3.4c-5.7,2.3-9.6,5.4-11.7,9.2
		c-2.1,4-3.2,9.2-3.3,15.6h16.2V509.9z"/>
	<path class="st0" d="M824.3,509.9H740v-33.6h14v-86h-14v-33.6h69.3V416c14.7-9.9,29.2-14.9,43.5-14.9c12.5,0,22.5,3.6,29.8,10.9
		c7.3,7.3,11,20.3,11,38.8v25.4h12.5v33.6h-67.9v-43.7c0-13.3-0.8-21.6-2.3-25c-1.6-3.4-5-5.1-10.1-5.1c-5.4,0-10.9,1.9-16.5,5.6
		v34.6h15V509.9z"/>
	<path class="st0" d="M1012.7,476.1l45.7,5.6c-2.1,4.8-4.9,9-8.6,12.8c-3.7,3.8-8.1,7.1-13.4,9.8c-10.6,5.7-23.4,8.6-38.2,8.6
		c-24.9,0-43.6-5.2-56.1-15.5c-12.5-10.3-18.8-23.7-18.8-40.4c0-16.3,6.2-29.9,18.6-40.7c12.3-10.9,28.9-16.3,49.9-16.3
		c20.2,0,36.6,5.1,49.3,15.4c12.5,10.2,19.1,25.7,19.9,46.6h-84.1c0.2,17.3,6.7,26,19.4,26C1003.8,488,1009.3,484,1012.7,476.1z
		 M977.5,448.2h31.1c0.1-2.2,0.2-3.4,0.2-3.7c0-5.8-1.5-10.6-4.4-14.4c-2.9-3.7-6.8-5.6-11.7-5.6c-5,0-8.8,2.1-11.4,6.2
		c-2.6,4.2-4,9.3-4,15.4C977.4,446.8,977.4,447.5,977.5,448.2z"/>
	<path class="st0" d="M1243.6,476.3v33.6h-69.2v-7.2c-10.3,6.1-22.2,9.1-35.7,9.1c-15,0-28.4-4.6-39.9-13.8
		c-11.6-9.2-17.4-22.3-17.4-39.4c0-18.4,5.4-32.6,16.1-42.7c10.7-9.9,25.1-14.9,43-14.9c13.2,0,24.5,2.9,33.9,8.8v-19.6h-13.6v-33.6
		h69v119.5H1243.6z M1174.7,456.1c0-6.7-1.5-12.3-4.6-16.7c-3.1-4.4-7.7-6.6-13.8-6.6c-12.5,0-18.8,8.1-18.8,24.3
		c0,6.7,1.5,12.2,4.6,16.5c3,4.4,7.6,6.6,13.8,6.6c5.6,0,10.1-1.9,13.6-5.8C1173,470.5,1174.7,464.4,1174.7,456.1z"/>
</g>
</svg>
